<?xml version="1.0" encoding="UTF-8" standalone="no"?>
<!-- Created with Inkscape (http://www.inkscape.org/) -->

<svg
   xmlns:dc="http://purl.org/dc/elements/1.1/"
   xmlns:cc="http://creativecommons.org/ns#"
   xmlns:rdf="http://www.w3.org/1999/02/22-rdf-syntax-ns#"
   xmlns:svg="http://www.w3.org/2000/svg"
   xmlns="http://www.w3.org/2000/svg"
   xmlns:sodipodi="http://sodipodi.sourceforge.net/DTD/sodipodi-0.dtd"
   xmlns:inkscape="http://www.inkscape.org/namespaces/inkscape"
   version="1.1"
   id="svg8481"
   width="1741.403"
   height="1741.1442"
   viewBox="0 0 1741.403 1741.1441"
   sodipodi:docname="carpentries-incubator.svg"
   inkscape:export-filename="/home/francois/Documents/carpentries-logos/carpentries-incubator.png"
   inkscape:export-xdpi="72.008003"
   inkscape:export-ydpi="72.008003"
   inkscape:version="0.92.4 (5da689c313, 2019-01-14)">
  <metadata
     id="metadata8487">
    <rdf:RDF>
      <cc:Work
         rdf:about="">
        <dc:format>image/svg+xml</dc:format>
        <dc:type
           rdf:resource="http://purl.org/dc/dcmitype/StillImage" />
        <dc:title></dc:title>
      </cc:Work>
    </rdf:RDF>
  </metadata>
  <defs
     id="defs8485" />
  <sodipodi:namedview
     pagecolor="#ffffff"
     bordercolor="#666666"
     borderopacity="1"
     objecttolerance="10"
     gridtolerance="10"
     guidetolerance="10"
     inkscape:pageopacity="0"
     inkscape:pageshadow="2"
     inkscape:window-width="3840"
     inkscape:window-height="2032"
     id="namedview8483"
     showgrid="false"
     inkscape:zoom="0.5"
     inkscape:cx="469.27253"
     inkscape:cy="1153.244"
     inkscape:window-x="0"
     inkscape:window-y="54"
     inkscape:window-maximized="1"
     inkscape:current-layer="layer4"
     fit-margin-top="20"
     fit-margin-bottom="20"
     fit-margin-left="0"
     fit-margin-right="0" />
  <g
     inkscape:groupmode="layer"
     id="layer1"
     inkscape:label="egg-base"
     style="display:inline"
     transform="translate(-207.79611,0.49823653)">
    <path
       style="fill:#071159;fill-opacity:1;stroke:#071159;stroke-width:41.5748024;stroke-miterlimit:4;stroke-dasharray:none;stroke-opacity:1"
       d="M 1061.9825,40.289582 C 1023.4982,40.211612 985.83801,51.351638 950.59461,65.967844 869.28731,101.02698 801.64978,160.58203 743.80278,225.94878 647.99525,335.22611 577.18301,464.25395 525.94635,599.10239 c -43.87679,116.6016 -72.94254,238.9248 -82.31966,363.00667 -2.20187,47.42634 -1.60922,95.11084 -0.87468,142.63604 2.56928,59.2135 11.31913,118.4761 26.45036,175.9728 21.49686,81.6742 58.05257,160.6225 114.01035,225.1017 54.27653,63.7148 125.3379,112.1846 203.66905,142.5999 84.92589,33.284 176.55911,48.37 267.58603,51.0692 49.3334,0.9014 98.6866,0.6785 147.3743,-7.2414 97.9034,-14.3361 192.9743,-51.1042 272.1839,-110.1568 65.7147,-48.0531 119.6891,-110.8038 159.2761,-181.2985 43.1845,-76.3843 70.4416,-161.3875 79.8268,-248.2343 2.8075,-45.396 1.404,-90.9831 1.5389,-136.4704 0.3081,-43.28327 -4.2154,-86.2539 -10.6712,-129.02188 C 1679.8813,723.87077 1627.4883,564.41119 1547.6855,419.35028 1493.371,321.58965 1426.1479,229.48882 1340.8583,155.6213 1281.5133,104.19417 1211.2681,62.301261 1133.4258,45.772748 c -23.3486,-5.40087 -47.556,-5.290159 -71.4433,-5.483166 z m 9.3925,12.803684 c 71.3825,-0.431628 139.9392,27.424345 198.6133,65.888514 83.344,54.84774 150.5729,130.45145 206.6228,211.67243 84.5382,123.91561 144.5445,263.2842 182.7604,407.55013 27.8019,105.99548 43.2442,215.29669 44.2903,324.81416 1.2254,120.9657 -28.3567,243.2183 -91.71,347.3321 -57.8984,96.0371 -145.3984,174.6053 -248.5424,221.0942 -88.7922,40.3108 -187.379,57.3054 -284.8057,55.1866 -104.11103,-1.0812 -209.58004,-16.8101 -305.36398,-58.4756 -44.20076,-19.5811 -86.52098,-44.1637 -123.27136,-75.4535 -29.37019,-26.2931 -57.99992,-53.8851 -80.48426,-86.3093 -54.7437,-75.367 -85.85693,-165.1187 -101.00749,-256.0243 -8.29357,-48.7563 -12.82467,-98.1309 -12.77306,-147.5831 -0.52378,-44.5993 -0.36975,-89.3248 5.23446,-133.65505 19.72134,-184.7634 79.96075,-364.90821 173.38035,-526.11887 54.51794,-92.93323 120.61493,-180.66362 203.91115,-250.48954 52.85781,-43.69759 113.8876,-81.024021 182.32519,-94.498454 16.7343,-3.208088 33.7721,-4.859273 50.8203,-4.93042 z"
       id="path9034"
       inkscape:connector-curvature="0" />
  </g>
  <g
     inkscape:groupmode="layer"
     id="layer5"
     inkscape:label="egg-outline"
     sodipodi:insensitive="true"
     style="display:none"
     transform="translate(-207.79611,4.4982208)" />
  <g
     inkscape:groupmode="layer"
     id="layer2"
     inkscape:label="egg-highlight"
     style="display:none"
     transform="translate(-207.79611,0.49823653)">
    <path
       style="fill:#071159;fill-opacity:1;stroke-width:1.33333337"
       d="m 403.39372,508.89061 c -25.4959,-8.459 -42.2603,-30.2114 -47.7999,-62.0221 -2.0064,-11.5216 -0.9231,-42.0063 1.9484,-54.8284 10.1023,-45.1099 36.2823,-87.2441 70.1213,-112.8537 17.0374,-12.8941 45.2998,-22.5097 60.4854,-20.5787 20.596,2.6189 34.7268,18.4911 40.1011,45.0429 2.689,13.2852 2.7007,41.1014 0.025,59.5517 -4.1723,28.7703 -18.5319,81.178 -27.2448,99.4343 -8.2383,17.2618 -20.5117,30.3261 -35.6037,37.898 -18.1791,9.1207 -47.7301,13.1013 -62.0329,8.356 z"
       id="path9034-6"
       inkscape:connector-curvature="0"
       sodipodi:nodetypes="csscccscccc" />
  </g>
  <g
     inkscape:groupmode="layer"
     id="layer3"
     inkscape:label="egg-shadow"
     style="display:none"
     transform="translate(-207.79611,0.49823653)">
    <path
       style="opacity:0.65499998;fill:#000b45;fill-opacity:1;stroke-width:1.33333337"
       d="m 1083.5271,1569.3977 c -722.3514,110.1794 -361.1757,55.0897 0,0 z m -132.76315,75.0212 c -633.84263,60.1652 -316.92132,30.0826 0,0 z m -338.4339,50.9286 c -54.1048,-2.9058 -107.7278,-11.3165 -161.9826,-25.4068 -13.8063,-3.5856 -21.6566,-6.309 -23.6891,-8.2185 -4.1641,-3.912 -6.2547,-11.3356 -4.4905,-15.9457 2.6883,-7.0247 4.0003,-7.2402 54.1622,-8.8944 48.8839,-1.6122 75.9691,-3.6568 109.3333,-8.2538 68.9427,-9.4989 135.0773,-29.3828 194.6667,-58.528 95.4565,-46.6878 180.6346,-123.4048 243.75145,-219.538 48.7218,-74.2082 84.5476,-162.3571 97.483,-239.8556 29.6243,-177.48377 16.0037,-366.13817 -40.7199,-563.99987 -9.3012,-32.4444 -28.6015,-91.0166 -34.6085,-105.0297 -5.5464,-12.9384 -8.049,-25.0068 -6.4137,-30.9294 1.6076,-5.8223 6.9212,-10.0409 12.647,-10.0409 4.0334,0 5.0492,0.8975 10.9404,9.6666 32.6043,48.5319 69.9714,133.5362 103.4465,235.3244 54.1096,164.5318 78.1164,316.78428 72.9487,462.64447 -0.8255,23.3004 -2.3898,50.7357 -3.4762,60.9673 -13.1083,123.452 -59.4523,236.6265 -134.8092,329.2111 -16.1778,19.8763 -50.8904,54.9056 -70.2887,70.9302 -86.38455,71.3602 -197.42575,114.17 -322.90085,124.4878 -24.2247,1.9922 -72.0669,2.6942 -96,1.4088 z"
       id="path9034-3"
       inkscape:connector-curvature="0"
       sodipodi:nodetypes="ccccccccccsscccsscssssccc" />
  </g>
  <g
     inkscape:groupmode="layer"
     id="layer4"
     inkscape:label="logo"
     transform="translate(-207.79611,0.49823653)"
     style="display:inline">
    <g
       style="fill:#071159;fill-opacity:1"
       id="g9091"
       transform="matrix(10.303871,0,0,10.303871,445.38654,-1241.3075)">
      <path
         d="m 60.4089,220.1395 -0.609,-15.6219 13.481,-8.4941 13.6126,7.2951 0.692,16.0431 -13.481,8.4935 z"
         style="fill:#071159;fill-opacity:1;fill-rule:evenodd"
         id="path2"
         inkscape:connector-curvature="0" />
      <path
         d="m 33.6628,217.112 -0.0823,-22.4502 29.2906,-18.2808 14.0091,8.3629 c -10.1028,6.5645 -14.7455,9.3309 -24.9875,15.6991 l -0.1926,5.9751 z"
         style="fill:#071159;fill-opacity:1;fill-rule:evenodd"
         id="path4"
         inkscape:connector-curvature="0" />
      <path
         d="m 35.0548,248.4071 -12.0432,-19.0814 28.7863,-16.8447 1.1557,12.3346 10.7928,5.589 z"
         style="fill:#071159;fill-opacity:1;fill-rule:evenodd"
         id="path6"
         inkscape:connector-curvature="0" />
      <path
         d="m 50.128,245.2642 19.919,10.3549 29.8294,-18.2487 -1.8935,-15.6419 c -10.3375,6.1835 -14.3477,8.7856 -24.6876,14.9664 l -5.3995,-2.5663 z"
         style="fill:#071159;fill-opacity:1;fill-rule:evenodd"
         id="path8"
         inkscape:connector-curvature="0" />
    </g>
  </g>
</svg>
